<?xml version="1.0" encoding="utf-8"?>
<!-- Generator: Adobe Illustrator 25.0.0, SVG Export Plug-In . SVG Version: 6.00 Build 0)  -->
<svg version="1.1" id="Layer_1" xmlns="http://www.w3.org/2000/svg" xmlns:xlink="http://www.w3.org/1999/xlink" x="0px" y="0px"
	 viewBox="0 0 53.33 20" style="enable-background:new 0 0 53.33 20;" xml:space="preserve">
<style type="text/css">
	.st0{fill:#1327FA;}
	.st1{fill:#FFFFFF;}
</style>
<g>
	<path class="st0" d="M53.33,20H9.55C4.28,20,0,15.52,0,10l0,0C0,4.48,4.28,0,9.55,0h43.78V20z"/>
	<g>
		<path class="st1" d="M9.52,6.27h3.68c0.83,0,1.57,0.15,2.2,0.45s1.13,0.73,1.48,1.3c0.35,0.56,0.53,1.22,0.53,1.98
			s-0.18,1.42-0.53,1.98c-0.35,0.56-0.85,0.99-1.48,1.3c-0.64,0.3-1.37,0.45-2.2,0.45H9.52C9.52,13.73,9.52,6.27,9.52,6.27z
			 M13.09,11.77c0.54,0,0.97-0.15,1.3-0.46c0.32-0.31,0.49-0.75,0.49-1.31c0-0.56-0.16-1-0.49-1.31c-0.32-0.31-0.76-0.46-1.3-0.46
			h-1.06v3.54C12.04,11.77,13.09,11.77,13.09,11.77z"/>
		<path class="st1" d="M24.54,11.83v1.9h-6.21V6.27h6.07v1.9h-3.59v0.87h3.16v1.81h-3.16v0.98C20.81,11.83,24.54,11.83,24.54,11.83z
			"/>
		<path class="st1" d="M32.18,13.73l-0.02-3.4l-1.62,2.73h-1.11l-1.62-2.61v3.29h-2.29V6.27h2.07l2.43,3.98l2.37-3.98h2.07
			l0.02,7.47L32.18,13.73L32.18,13.73z"/>
		<path class="st1" d="M37.44,13.4c-0.64-0.33-1.14-0.8-1.5-1.39c-0.36-0.59-0.54-1.26-0.54-2.01c0-0.75,0.18-1.42,0.54-2.01
			s0.86-1.06,1.5-1.39c0.64-0.33,1.36-0.5,2.17-0.5s1.53,0.17,2.17,0.5c0.64,0.33,1.14,0.8,1.5,1.39c0.36,0.59,0.54,1.26,0.54,2.01
			c0,0.75-0.18,1.42-0.54,2.01c-0.36,0.59-0.86,1.06-1.5,1.39s-1.36,0.5-2.17,0.5C38.8,13.9,38.08,13.74,37.44,13.4z M40.45,11.64
			c0.25-0.15,0.45-0.37,0.6-0.65c0.15-0.28,0.22-0.61,0.22-0.99s-0.07-0.71-0.22-0.99c-0.15-0.28-0.35-0.5-0.6-0.65
			c-0.25-0.15-0.53-0.23-0.85-0.23s-0.6,0.08-0.85,0.23c-0.25,0.15-0.45,0.37-0.6,0.65C38,9.29,37.93,9.62,37.93,10
			s0.07,0.71,0.22,0.99c0.15,0.28,0.35,0.5,0.6,0.65c0.25,0.15,0.53,0.23,0.85,0.23C39.91,11.87,40.2,11.79,40.45,11.64z"/>
	</g>
</g>
</svg>
